<svg width="24" height="24" viewBox="0 0 24 24" fill="none" xmlns="http://www.w3.org/2000/svg">
<g clip-path="url(#clip0_438_34295)">
<path d="M20.9936 11.9844C20.9936 12.5469 20.5248 12.9875 19.9936 12.9875H18.9936L19.0154 17.9937C19.0154 18.0781 19.0092 18.1625 18.9998 18.2469V18.7531C18.9998 19.4438 18.4404 20.0031 17.7498 20.0031H17.2498C17.2154 20.0031 17.1811 20.0031 17.1467 20C17.1029 20.0031 17.0592 20.0031 17.0154 20.0031L15.9998 20H15.2498C14.5592 20 13.9998 19.4406 13.9998 18.75V18V16C13.9998 15.4469 13.5529 15 12.9998 15H10.9998C10.4467 15 9.9998 15.4469 9.9998 16V18V18.75C9.9998 19.4406 9.44043 20 8.7498 20H7.9998H7.00293C6.95605 20 6.90918 19.9969 6.8623 19.9937C6.8248 19.9969 6.7873 20 6.7498 20H6.2498C5.55918 20 4.9998 19.4406 4.9998 18.75V15.25C4.9998 15.2219 4.9998 15.1906 5.00293 15.1625V12.9844H4.00293C3.44043 12.9844 3.00293 12.5469 3.00293 11.9812C3.00293 11.7 3.09668 11.45 3.31543 11.2312L11.3248 4.25C11.5436 4.03125 11.7936 4 12.0123 4C12.2311 4 12.4811 4.0625 12.6686 4.21875L20.6498 11.2344C20.8998 11.4531 21.0248 11.7031 20.9936 11.9844Z" fill="white"/>
</g>
<defs>
<clipPath id="clip0_438_34295">
<rect width="18" height="16" fill="white" transform="translate(3 4)"/>
</clipPath>
</defs>
</svg>
