<svg width="16" height="18" viewBox="0 0 16 18" fill="none" xmlns="http://www.w3.org/2000/svg">
<path d="M3.375 4.5C3.375 5.69347 3.84911 6.83807 4.69302 7.68198C5.53693 8.52589 6.68153 9 7.875 9C9.06847 9 10.2131 8.52589 11.057 7.68198C11.9009 6.83807 12.375 5.69347 12.375 4.5C12.375 3.30653 11.9009 2.16193 11.057 1.31802C10.2131 0.474106 9.06847 0 7.875 0C6.68153 0 5.53693 0.474106 4.69302 1.31802C3.84911 2.16193 3.375 3.30653 3.375 4.5ZM6.69727 11.5383L7.35117 12.6281L6.18047 16.984L4.91484 11.8195C4.84453 11.5348 4.57031 11.3484 4.28555 11.4223C1.82461 12.0375 0 14.2664 0 16.9207C0 17.5184 0.485156 18 1.0793 18H5.70937C5.70937 18 5.70937 18 5.71289 18H5.90625H9.84375H10.0371C10.0371 18 10.0371 18 10.0406 18H14.6707C15.2684 18 15.75 17.5148 15.75 16.9207C15.75 14.2664 13.9254 12.0375 11.4645 11.4223C11.1797 11.352 10.9055 11.5383 10.8352 11.8195L9.56953 16.984L8.39883 12.6281L9.05273 11.5383C9.27773 11.1621 9.00703 10.6875 8.57109 10.6875H7.875H7.18242C6.74648 10.6875 6.47578 11.1656 6.70078 11.5383H6.69727Z" fill="white"/>
</svg>
